<?xml version="1.0" encoding="UTF-8" standalone="no"?>
<svg
   xmlns:dc="http://purl.org/dc/elements/1.1/"
   xmlns:cc="http://creativecommons.org/ns#"
   xmlns:rdf="http://www.w3.org/1999/02/22-rdf-syntax-ns#"
   xmlns:svg="http://www.w3.org/2000/svg"
   xmlns="http://www.w3.org/2000/svg"
   xmlns:sodipodi="http://sodipodi.sourceforge.net/DTD/sodipodi-0.dtd"
   xmlns:inkscape="http://www.inkscape.org/namespaces/inkscape"
   width="35.949825"
   height="31.999987"
   version="1.1"
   x="0px"
   y="0px"
   viewBox="0 0 17.974913 15.999993"
   enable-background="new 0 0 100 100"
   xml:space="preserve"
   id="svg2"
   inkscape:version="0.91 r13725"
   sodipodi:docname="logo.svg"
   style="fill:#70c041"><metadata
     id="metadata10"><rdf:RDF><cc:Work
         rdf:about=""><dc:format>image/svg+xml</dc:format><dc:type
           rdf:resource="http://purl.org/dc/dcmitype/StillImage" /><dc:title></dc:title></cc:Work></rdf:RDF></metadata><defs
     id="defs8" /><sodipodi:namedview
     pagecolor="#ffffff"
     bordercolor="#666666"
     borderopacity="1"
     objecttolerance="10"
     gridtolerance="10"
     guidetolerance="10"
     inkscape:pageopacity="0"
     inkscape:pageshadow="2"
     inkscape:window-width="1920"
     inkscape:window-height="1003"
     id="namedview6"
     showgrid="false"
     inkscape:zoom="2.36"
     inkscape:cx="125.68415"
     inkscape:cy="41.030518"
     inkscape:window-x="0"
     inkscape:window-y="24"
     inkscape:window-maximized="1"
     inkscape:current-layer="svg2"
     fit-margin-top="0"
     fit-margin-left="0"
     fit-margin-right="0"
     fit-margin-bottom="0" /><path
     d="m 13.533929,6.320959 c 0.287597,0 0.520671,0.233073 0.520671,0.520671 0,0.287597 -0.233074,0.520671 -0.520671,0.520671 -0.287598,0 -0.520672,-0.233074 -0.520672,-0.520671 0,-0.287598 0.233074,-0.520671 0.520672,-0.520671 z M 0.01665269,13.401246 c 0.078091,-0.306571 0.389255,-0.448572 0.5032954,-0.490912 0.104254,-0.04354 0.52766131,-0.195527 1.92690231,-0.491113 C 2.8888316,12.325751 4.1348872,12.181754 5.064586,12.081294 4.2315518,11.537056 3.320028,10.88457 2.8812423,10.379477 1.9163931,9.268432 0.95633709,7.994016 0.74023969,5.725392 0.51735169,3.384869 1.6309926,2.045544 1.6785261,1.989623 L 1.9403595,1.681654 2.2323507,1.961063 c 0.027561,0.02656 2.3005792,2.4999 3.9332933,3.323746 0.04753,0.02397 0.09347,0.04673 0.140004,0.0699 C 6.612618,4.052732 7.84689,2.655089 8.000076,2.485327 L 8.422485,2.017382 8.72606,2.570008 c 0.0094,0.01698 0.940283,1.713202 1.579788,2.992211 0.04813,0.09627 0.09547,0.194727 0.143599,0.295187 0.196924,0.410225 0.400639,0.832235 0.72119,1.211504 0.640703,-1.430598 1.233074,-2.118634 2.110645,-2.244059 0.07569,-0.01078 0.154384,-0.01638 0.234272,-0.01638 0.690034,0 1.371081,0.412622 1.606152,0.570402 l 0.105452,0.01438 c -0.0731,-0.19952 -0.303176,-0.794687 -0.74296,-1.501697 -0.353305,0.09567 -1.04973,0.270022 -1.933693,0.338726 -1.344517,0.104254 -2.087477,-0.574396 -2.087477,-0.574396 0,0 1.344517,-0.695626 2.447573,-0.556421 0.568205,0.0717 0.998203,0.244657 1.282605,0.395646 -0.45017,-0.680847 -0.697624,-0.883963 -1.032155,-1.261234 -0.359297,0.05612 -0.931097,0.08548 -1.76473,-0.03176 C 9.773194,1.974036 9.710082,1.338926 9.710082,1.338926 c 0,0 1.340923,-0.51488 2.445376,-0.292791 0.496905,0.10006 0.848612,0.323947 1.08608,0.540244 0,0 0.636509,0.53545 1.262033,1.339125 0.08708,-0.464949 0.233074,-1.076892 0.455163,-1.524865 C 15.366763,0.577591 16.166842,0 16.166842,0 c 0,0 0.102058,1.337527 -0.203914,2.057719 -0.194328,0.45756 -0.772718,0.956461 -1.168764,1.259637 0.285401,0.405632 0.565209,0.868584 0.793489,1.374875 0.01438,0.03216 0.02916,0.06551 0.04394,0.09926 0.07509,-0.403635 0.252247,-1.030158 0.662672,-1.483523 0.653485,-0.722389 1.680647,-1.004993 1.680647,-1.004993 0,0 -0.25025,1.282005 -0.966047,1.941482 -0.49311,0.454364 -0.985621,0.732175 -1.244458,0.861194 0.04973,0.12123 0.100459,0.249051 0.151987,0.381266 l 1.484322,0.202517 -0.805073,0.558618 c -0.0044,0.003 -0.12842,0.09027 -0.304973,0.246055 0.377072,1.053725 0.701218,2.060715 0.718394,2.119832 L 16.163448,8.432993 c -0.0034,-0.01178 -0.168564,-0.632914 -0.398841,-1.39984 -0.369683,0.44258 -0.726783,1.04234 -0.745357,1.723187 -0.05532,2.025165 -0.363491,3.303375 -1.06391,4.411624 -0.815459,1.290393 -2.77172,2.115239 -3.90014,2.288796 -0.168764,0.02596 -0.351908,0.03914 -0.544638,0.03914 -0.882564,0 -1.835031,-0.276813 -2.346714,-0.425405 -0.130018,-0.03775 -0.277412,-0.08069 -0.311764,-0.08608 -0.138406,0 -0.648492,0.179349 -1.208708,0.503894 -0.4286,0.248053 -1.1449967,0.511684 -1.6289192,0.511684 -0.089874,0 -0.168564,-0.0088 -0.2406631,-0.02676 -0.3335331,-0.08348 -0.4511684,-0.273616 -0.5212702,-0.387257 -0.029159,-0.04713 -0.039345,-0.06291 -0.061514,-0.07929 -0.013581,-0.0038 -0.052926,-0.01178 -0.1408029,-0.01178 -0.067705,0 -0.1422009,0.0046 -0.2143,0.0092 -0.072698,0.0046 -0.141402,0.0088 -0.2065108,0.0088 -0.087078,0 -0.3185541,0 -0.4595567,-0.188336 -0.046335,-0.06151 -0.093869,-0.141003 -0.1489914,-0.232874 -0.031955,-0.05333 -0.068904,-0.11484 -0.1026563,-0.166567 -0.013181,2e-4 -0.026163,5.99e-4 -0.039545,7.99e-4 -0.026563,5.99e-4 -0.053126,0.0012 -0.07889,0.0012 -0.096465,0 -0.3525064,0 -0.5158777,-0.204314 -0.067106,-0.08388 -0.1086479,-0.169762 -0.1453965,-0.245456 -0.040943,-0.08448 -0.067306,-0.136609 -0.1118434,-0.178351 -0.029159,-0.01038 -0.09966,-0.02197 -0.14759341,-0.02976 -0.1941283,-0.03157 -0.4873178,-0.0793 -0.7120033,-0.328756 -0.1951268,-0.216896 -0.1779508,-0.430996 -0.1503894,-0.539245 z M 9.640979,6.245464 C 9.594839,6.149594 9.549709,6.055131 9.503771,5.963259 9.102732,5.161182 8.584258,4.190342 8.256717,3.58419 7.802153,4.178957 7.226559,5.07031 7.144873,5.754352 8.366363,6.308177 9.144274,6.528468 9.910401,6.78451 9.811741,6.600367 9.724262,6.419021 9.640979,6.245464 Z m -8.0003998,7.399441 c 0.1410026,0.132415 0.2218893,0.274017 0.276413,0.382864 0,0 0.2754144,-0.147993 0.4839225,-0.0068 0.1138406,0.07709 0.2696226,0.416017 0.2696226,0.416017 0.037348,0.05772 0.075494,0.120432 0.1062512,0.17176 5.992e-4,0 0.0014,0 0.002,-2e-4 0.077491,-0.005 0.1739565,-0.01099 0.2710206,-0.01099 0.1495905,0 0.2700219,0.01398 0.3790693,0.04414 l 0.1609746,0.04434 0.1342121,0.09926 c 0.1543839,0.11424 0.2352706,0.238665 0.2840024,0.317555 0.0018,0 0.00379,0 0.00599,0 0.2638307,0 0.8260436,-0.186339 1.1793485,-0.390853 0.110446,-0.06391 1.094867,-0.624525 1.658279,-0.624525 l 0.0711,0 0.0703,0.01118 c 0.08268,0.01318 0.170561,0.03775 0.42141,0.110645 0.468743,0.136209 1.341122,0.389654 2.095666,0.389654 0.146994,0 0.284402,-0.0096 0.408428,-0.02876 0.970242,-0.149191 2.649091,-0.88616 3.27821,-1.881566 0.606951,-0.960256 0.874976,-2.106451 0.925505,-3.956661 0.02776,-1.017775 0.582185,-1.864989 1.095067,-2.434791 L 15.000674,6.267614 14.794762,6.239454 14.622204,6.123616 c -0.287597,-0.19293 -0.74975,-0.418215 -1.106251,-0.418215 -0.03755,0 -0.0737,0.0024 -0.10745,0.0072 -0.373477,0.05333 -0.812462,0.318355 -1.489714,1.881566 L 11.558894,8.425013 10.731452,8.057328 C 10.196601,7.81966 9.749227,7.674264 9.231152,7.5059 8.36856,7.225492 7.390929,6.907737 5.762009,6.085688 4.4901897,5.443787 2.9587338,3.993817 2.0555982,3.072307 1.8079449,3.575402 1.5197484,4.445384 1.633589,5.640312 1.8247214,7.646303 2.6533613,8.74836 3.5588936,9.7913 3.7348472,9.993817 4.2281566,10.46316 5.555498,11.330346 L 7.656757,12.703223 5.16125,12.972846 C 3.8634672,13.113249 2.9419573,13.231284 2.6325904,13.296593 2.152862,13.398051 1.7969603,13.480735 1.5353265,13.546044 l 0.1052527,0.09886 z"
     id="path4"
     inkscape:connector-curvature="0"
     style="fill:#ffffff" /></svg>